<?xml version="1.0" encoding="iso-8859-1"?>
<!-- Generator: Adobe Illustrator 19.0.0, SVG Export Plug-In . SVG Version: 6.00 Build 0)  -->
<svg version="1.1" id="Capa_1" xmlns="http://www.w3.org/2000/svg" xmlns:xlink="http://www.w3.org/1999/xlink" x="0px" y="0px"
	 viewBox="0 0 512 512" style="enable-background:new 0 0 512 512;" xml:space="preserve">
<g>
	<g>
		<path d="M436,61c-33.091,0-60,26.909-60,60s26.909,60,60,60s60-26.909,60-60S469.091,61,436,61z"/>
	</g>
</g>
<g>
	<g>
		<path d="M136,391H16c-8.291,0-16,6.709-16,15v91c0,8.291,7.709,15,16,15h120c8.291,0,15-6.709,15-15v-91
			C151,397.709,144.291,391,136,391z"/>
	</g>
</g>
<g>
	<g>
		<path d="M316,271H196c-8.291,0-15,6.709-15,15v211c0,8.291,6.709,15,15,15h120c8.291,0,15-6.709,15-15V286
			C331,277.709,324.291,271,316,271z"/>
	</g>
</g>
<g>
	<g>
		<path d="M497,331H376c-8.291,0-15,6.709-15,15v151c0,8.291,6.709,15,15,15h121c8.291,0,15-6.709,15-15V346
			C512,337.709,505.291,331,497,331z"/>
	</g>
</g>
<g>
	<g>
		<path d="M436,181c-41.353,0-75,33.647-75,75v30c0,8.291,6.709,15,15,15h121c8.291,0,15-6.709,15-15v-30
			C512,214.647,477.353,181,436,181z"/>
	</g>
</g>
<g>
	<g>
		<path d="M256,0c-33.091,0-60,27.909-60,61s26.909,60,60,60s60-26.909,60-60S289.091,0,256,0z"/>
	</g>
</g>
<g>
	<g>
		<path d="M256,121c-41.353,0-75,33.647-75,75v30c0,8.291,6.709,15,15,15h120c8.291,0,15-6.709,15-15v-30
			C331,154.647,297.353,121,256,121z"/>
	</g>
</g>
<g>
	<g>
		<path d="M76,121c-33.091,0-60,26.909-60,60s26.909,60,60,60s60-26.909,60-60S109.091,121,76,121z"/>
	</g>
</g>
<g>
	<g>
		<path d="M76,241c-41.353,0-76,33.647-76,75v30c0,8.291,7.709,15,16,15h120c8.291,0,15-6.709,15-15v-30
			C151,274.647,117.353,241,76,241z"/>
	</g>
</g>
<g>
</g>
<g>
</g>
<g>
</g>
<g>
</g>
<g>
</g>
<g>
</g>
<g>
</g>
<g>
</g>
<g>
</g>
<g>
</g>
<g>
</g>
<g>
</g>
<g>
</g>
<g>
</g>
<g>
</g>
</svg>
