<svg id="Capa_1" enable-background="new 0 0 512 512" height="512" viewBox="0 0 512 512" width="512" xmlns="http://www.w3.org/2000/svg"><g><path d="m15 421h482c8.284 0 15-6.716 15-15v-300c0-8.284-6.716-15-15-15h-482c-8.284 0-15 6.716-15 15v300c0 8.284 6.716 15 15 15zm15-210h30v90h-30zm241 2.58c17.459 6.192 30 22.865 30 42.42s-12.541 36.228-30 42.42zm-30 84.84c-17.459-6.192-30-22.865-30-42.42s12.541-36.228 30-42.42zm241 2.58h-30v-90h30zm0-120h-45c-8.284 0-15 6.716-15 15v120c0 8.284 6.716 15 15 15h45v60h-211v-61.509c34.192-6.968 60-37.271 60-73.491s-25.808-66.522-60-73.491v-61.509h211zm-241-60v61.509c-34.192 6.968-60 37.271-60 73.491s25.808 66.522 60 73.491v61.509h-211v-60h45c8.284 0 15-6.716 15-15v-120c0-8.284-6.716-15-15-15h-45v-60z"/></g></svg>